<?xml version="1.0" encoding="utf-8"?>
<!-- Generator: Adobe Illustrator 19.1.0, SVG Export Plug-In . SVG Version: 6.00 Build 0)  -->
<svg version="1.1" id="Layer_1" xmlns="http://www.w3.org/2000/svg" xmlns:xlink="http://www.w3.org/1999/xlink" x="0px" y="0px"
	 width="212.5px" height="47.8px" viewBox="0 0 212.5 47.8" style="enable-background:new 0 0 212.5 47.8;" xml:space="preserve">
<style type="text/css">
	.st0{fill:#F04C37;}
	.st1{fill:#707779;}
</style>
<g>
	<path class="st0" d="M37.3,47.4v-6.5c-1.3,0.2-2.5,0.2-3.6,0.2c-2.7,0-4.9-0.5-7.1-0.9c-2.2-0.5-4.5-0.9-7.5-0.9
		c-1.1,0-2.2,0.1-3.3,0.2V46c0.9-0.1,1.7-0.1,2.5-0.1c2.6,0,4.8,0.4,7,0.9c2.2,0.5,4.6,1,7.5,1C34.2,47.8,35.7,47.6,37.3,47.4z"/>
</g>
<g>
	<path class="st1" d="M71.7,28c-1.2,0.6-2.6,0.9-4.1,0.9c-5.5,0-9.8-4.4-9.8-9.9c0-5.6,4.3-10,9.8-10c5.5,0,9.8,4.4,9.8,10
		c0,3.1-1.4,5.8-3.5,7.6l5.8,7.3h-3.2L71.7,28z M67.6,26.4c4,0,7.1-3.1,7.1-7.3c0-4.2-3.1-7.4-7.1-7.4s-7.1,3.2-7.1,7.4
		C60.5,23.2,63.6,26.4,67.6,26.4z"/>
	<path class="st1" d="M97.2,20.2c0,5.3-3.3,8.8-8.2,8.8c-5,0-8.3-3.5-8.3-8.8V9.4h2.7v10.7c0,3.7,2.2,6.2,5.6,6.2
		c3.2,0,5.4-2.4,5.4-6.2V9.4h2.7V20.2z"/>
	<path class="st1" d="M115.5,28.6l-1.9-4.2h-10.2l-1.9,4.2h-3l8.9-19.1h2.1l8.9,19.1H115.5z M108.5,13.1l-4,8.8h8L108.5,13.1z"/>
	<path class="st1" d="M139.1,28.6h-1.9l-12.9-14.2l0,14.2h-2.7V9.4h1.9l12.9,14.4V9.4h2.7V28.6z"/>
	<path class="st1" d="M151,11.9v16.7h-2.7V11.9h-6.1V9.4h15v2.4H151z"/>
	<path class="st0" d="M173,28.6h-12.8V9.4h2.7v16.7H173V28.6z"/>
	<path class="st0" d="M191.9,28.6l-1.9-4.2h-10.2l-1.9,4.2h-3l8.9-19.1h2.1l8.9,19.1H191.9z M184.9,13.1l-4,8.8h8L184.9,13.1z"/>
	<path class="st0" d="M212.5,22.8c0,3.4-2.6,5.7-6.7,5.7H197V9.4h8.4c3.4,0,5.6,1.9,5.6,4.8c0,1.6-0.7,2.8-1.7,3.5
		C211.3,18.6,212.5,20.5,212.5,22.8z M199.7,17h5.8c1.7,0,2.8-1,2.8-2.5c0-1.6-1.1-2.6-2.9-2.6h-5.7V17z M205.8,26.1
		c2.5,0,4.1-1.3,4.1-3.4c0-2.1-1.6-3.5-4.2-3.5h-6v6.9H205.8z"/>
</g>
<g>
	<path class="st0" d="M38,19C38,8.5,29.5,0,19,0C8.5,0,0,8.5,0,19c0,9.4,6.8,17.1,15.7,18.7v-7.3c-5-1.4-8.6-6-8.6-11.4
		c0-6.6,5.3-11.9,11.9-11.9S30.9,12.4,30.9,19c0,5.4-3.6,10-8.6,11.4v7.3C31.2,36.1,38,28.4,38,19z"/>
</g>
</svg>
